<?xml version="1.0" standalone="no"?>
<!DOCTYPE svg PUBLIC "-//W3C//DTD SVG 20010904//EN"
 "http://www.w3.org/TR/2001/REC-SVG-20010904/DTD/svg10.dtd">
<svg version="1.0" xmlns="http://www.w3.org/2000/svg"
 width="172.000000pt" height="172.000000pt" viewBox="0 0 172.000000 172.000000"
 preserveAspectRatio="xMidYMid meet">
<metadata>
Created by potrace 1.14, written by Peter Selinger 2001-2017
</metadata>
<g transform="translate(0.000000,172.000000) scale(0.100000,-0.100000)"
fill="#000000" stroke="none">
<path d="M949 1370 c-1 -5 -3 -19 -4 -30 -1 -11 -3 -21 -5 -22 -1 -2 -3 -10
-5 -18 -2 -8 -6 -28 -10 -45 -4 -16 -9 -41 -10 -55 -2 -14 -4 -25 -5 -25 -4 0
-22 -94 -24 -122 0 -13 -5 -23 -10 -23 -5 0 -7 -3 -4 -6 3 -3 0 -29 -7 -57 -8
-29 -16 -65 -19 -82 -7 -41 -15 -78 -31 -148 -8 -33 -12 -64 -9 -69 3 -4 0 -8
-5 -8 -6 0 -10 -3 -9 -7 4 -15 -13 -82 -26 -108 -20 -39 -52 -57 -104 -61 -65
-4 -86 3 -106 37 -14 23 -16 41 -10 91 3 35 7 74 9 88 l2 25 -98 1 -99 1 -10
-36 c-25 -98 -28 -201 -7 -253 16 -39 59 -88 76 -88 6 0 11 -4 11 -9 0 -5 15
-12 33 -16 17 -4 41 -10 52 -13 11 -2 45 -5 77 -6 31 -1 54 -5 51 -9 -3 -5 4
-4 15 2 12 6 25 10 29 9 22 -5 103 17 143 40 53 30 116 93 126 125 4 12 14 27
23 34 9 6 13 14 9 18 -3 4 0 22 8 41 8 19 11 34 8 34 -4 0 -1 7 6 15 7 8 10
15 7 15 -2 0 2 30 10 68 8 37 16 77 18 89 2 12 6 27 10 33 4 6 9 27 11 48 5
40 5 41 29 147 22 101 26 118 29 140 2 11 6 29 9 40 9 30 24 110 29 153 1 6 6
12 12 12 6 0 4 5 -4 10 -20 13 -220 13 -221 0z"/>
</g>
</svg>
